<?xml version="1.0" encoding="UTF-8" standalone="no"?>
<!DOCTYPE svg PUBLIC "-//W3C//DTD SVG 1.1//EN" "http://www.w3.org/Graphics/SVG/1.1/DTD/svg11.dtd">
<svg width="100%" height="100%" viewBox="0 0 2627 2169" version="1.1" xmlns="http://www.w3.org/2000/svg" xmlns:xlink="http://www.w3.org/1999/xlink" xml:space="preserve" xmlns:serif="http://www.serif.com/" style="fill-rule:evenodd;clip-rule:evenodd;stroke-linecap:round;stroke-linejoin:round;stroke-miterlimit:1.5;">
    <g transform="matrix(0.907873,0,0,0.826714,-45111.2,-17)">
        <g id="Gesicht" transform="matrix(1.32502,0,0,1.39739,38212,-290.126)">
            <g transform="matrix(0.831287,0,0,0.865622,-27230.8,-0.865622)">
                <path d="M44324.1,1083.96L44303.2,1109.69L44337,1118.58" style="fill:none;stroke:rgb(0,201,97);stroke-width:10.42px;"/>
            </g>
            <g transform="matrix(0.831287,0,0,0.865622,-27222.5,-1.73124)">
                <path d="M44073.4,1138.21L44105.8,1132.05" style="fill:none;stroke:rgb(0,201,97);stroke-width:10.42px;"/>
            </g>
            <g transform="matrix(0.831287,0,0,0.865622,-27227.5,0)">
                <path d="M44165,1141.23C44162,1201.89 44116.5,1270.07 44105.3,1347.18" style="fill:none;stroke:rgb(0,201,97);stroke-width:10.42px;"/>
            </g>
            <g transform="matrix(0.831287,0,0,0.865622,-27227.5,0)">
                <path d="M44122.6,1365.53L44143.9,1376.99" style="fill:none;stroke:rgb(0,201,97);stroke-width:10.42px;"/>
            </g>
            <g transform="matrix(0.831287,0,0,0.865622,-27227.5,0)">
                <path d="M44183.6,1371.26C44198.9,1353 44245.3,1349.59 44248.3,1365.53" style="fill:none;stroke:rgb(0,201,97);stroke-width:10.42px;"/>
            </g>
            <g transform="matrix(0.831287,0,0,1.42882,-27221.3,-560.929)">
                <path d="M43989.4,988.771C44012.1,968.693 44043.7,966.645 44070.8,973.146" style="fill:none;stroke:rgb(0,201,97);stroke-width:7.63px;"/>
            </g>
            <g transform="matrix(0.821325,-0.133611,0.128312,0.855249,-26959.4,5962.72)">
                <path d="M44338.7,934.314C44410.2,943.723 44455.4,894.455 44484.7,945.306" style="fill:none;stroke:rgb(0,201,97);stroke-width:10.42px;"/>
            </g>
            <g transform="matrix(0.831287,0,0,0.865622,-27227.5,0)">
                <path d="M44802.5,1018.13C44946,880.253 44953,1050.64 44949.9,1084.75C44941.1,1181.74 44839.4,1354.59 44777.5,1307.33" style="fill:none;stroke:rgb(0,201,97);stroke-width:10.42px;"/>
            </g>
            <g transform="matrix(0.831287,0,0,0.865622,-27227.5,0)">
                <path d="M44809.1,1102.86C44777.9,1130.43 44817.7,1146.2 44818.5,1162.37C44819.4,1179.92 44789.9,1210.5 44820.4,1209.09" style="fill:none;stroke:rgb(0,201,97);stroke-width:10.42px;"/>
            </g>
            <g transform="matrix(0.831287,0,0,0.865622,-27227.5,0)">
                <path d="M44816,1065.31C44863.7,999.698 44922.8,989.342 44912.5,1107.18" style="fill:none;stroke:rgb(0,201,97);stroke-width:10.42px;"/>
            </g>
            <g transform="matrix(0.831287,0,0,0.865622,-27227.5,0)">
                <path d="M43994.4,1285.82C43994.4,1285.82 44006.8,1386.07 44027.2,1445.18C44049.2,1509.22 44069.5,1558.75 44090.9,1604.56C44117.9,1662.39 44117.2,1732.67 44186.7,1753.51C44242.9,1770.4 44345.5,1782.56 44403.6,1748.79C44437.9,1728.85 44554,1672.55 44627.9,1608C44702.5,1542.79 44774.5,1444.3 44778.6,1386.44" style="fill:none;stroke:rgb(0,201,97);stroke-width:10.42px;"/>
            </g>
            <g transform="matrix(0.831287,0,0,0.865622,-27227.5,0)">
                <path d="M44024.6,833.566C44083.9,793.555 44126.5,841.802 44194.7,825.084C44297.3,799.95 44409.4,796.88 44485.1,834.454" style="fill:none;stroke:rgb(0,201,97);stroke-width:10.42px;"/>
            </g>
            <g transform="matrix(0.831287,0,0,0.865622,-27227.5,0)">
                <path d="M44050.7,771.743C44065.2,767.015 44088.8,762.645 44129.3,775.794C44261.9,818.931 44296,719.413 44420,774.253" style="fill:none;stroke:rgb(0,201,97);stroke-width:10.42px;"/>
            </g>
            <g transform="matrix(0.444229,0,0,0.61087,-9921.72,272.593)">
                <circle cx="44056.5" cy="1104.17" r="29.594" style="fill:rgb(0,201,97);stroke:rgb(0,201,97);stroke-width:36.61px;"/>
            </g>
            <g transform="matrix(0.444229,0,0,0.61087,-10174.8,283.052)">
                <circle cx="44056.5" cy="1104.17" r="29.594" style="fill:rgb(0,201,97);stroke:rgb(0,201,97);stroke-width:36.61px;"/>
            </g>
            <g transform="matrix(0.831287,0,0,0.865622,-27209.3,-8.14425)">
                <path d="M44196.2,1608.07C44229.5,1590.84 44296.5,1604.88 44341.6,1641.52" style="fill:none;stroke:rgb(0,201,97);stroke-width:10.42px;"/>
            </g>
            <g transform="matrix(0.831287,0,0,0.865622,-27227.5,0)">
                <path d="M44132.2,1519.67C44199.6,1547.35 44250.8,1481.88 44376.9,1532.35" style="fill:none;stroke:rgb(0,201,97);stroke-width:10.42px;"/>
            </g>
            <g transform="matrix(0.831287,0,0,0.865622,-27227.5,0)">
                <path d="M44055.1,668.547C43964,770.477 43989.7,820.802 43987.7,910.75" style="fill:none;stroke:rgb(0,201,97);stroke-width:10.42px;"/>
            </g>
            <g transform="matrix(0.831287,0,0,0.865622,-27227.5,0)">
                <path d="M43979.6,1108.65C43983.2,1135.48 43978.7,1155.93 43980,1185.08" style="fill:none;stroke:rgb(0,201,97);stroke-width:10.42px;"/>
            </g>
            <g transform="matrix(0.831287,0,0,0.865622,-27227.5,0)">
                <path d="M44355.7,1027.97C44395.1,1025.58 44434.9,1028.86 44458.1,1038.55" style="fill:none;stroke:rgb(0,201,97);stroke-width:10.42px;"/>
            </g>
            <g transform="matrix(0.831287,0,0,0.865622,-27227.5,0)">
                <path d="M44040.6,1048.4C44064.8,1041.35 44089.5,1042.44 44114.6,1053.05" style="fill:none;stroke:rgb(0,201,97);stroke-width:10.42px;"/>
            </g>
            <g transform="matrix(0.831287,0,0,0.865622,-27227.5,0)">
                <path d="M43996.7,898.525C44097.7,823.543 44117.3,909.418 44261.6,870.021C44343.5,847.696 44411.2,836.708 44477.4,901.178" style="fill:none;stroke:rgb(0,201,97);stroke-width:10.42px;"/>
            </g>
        </g>
        <g id="Kleidung-v2" serif:id="Kleidung v2" transform="matrix(1.32502,0,0,1.39739,38212,-290.126)">
            <g transform="matrix(0.831287,0,0,0.865622,-27227.5,0)">
                <path d="M44710.9,1628.5C44609.1,1753.28 44417.1,1849.04 44417.1,1849.04C44417.1,1849.04 44445,1882.38 44486,2010.84" style="fill:none;stroke:rgb(0,201,97);stroke-width:10.42px;"/>
            </g>
            <g transform="matrix(0.831287,0,0,0.865622,8661.65,207.621)">
                <path d="M1702.32,1084.23C1600.5,1339.43 1467.35,1591.83 1313.05,1842.33" style="fill:none;stroke:rgb(0,201,97);stroke-width:10.42px;"/>
            </g>
            <g transform="matrix(0.831287,0,0,0.865622,-27227.5,0)">
                <path d="M45016.7,1333.23C45077.1,1355.62 45272.5,1373.6 45516.4,1628.5C45653.6,1771.96 45731.6,1983.85 45738.3,2050.19" style="fill:none;stroke:rgb(0,201,97);stroke-width:10.42px;"/>
            </g>
            <g transform="matrix(0.831287,0,0,0.865622,-27227.5,0)">
                <path d="M43974.8,1269.08C43924.3,1276.03 43837.3,1314.1 43770,1388.18" style="fill:none;stroke:rgb(0,201,97);stroke-width:10.42px;"/>
            </g>
            <g transform="matrix(0.831287,0,0,0.865622,-27227.5,0)">
                <path d="M44151,1784.84L44224.8,1884.54C44224.8,1884.54 44175.5,1966.14 44171.4,2036.68" style="fill:none;stroke:rgb(0,201,97);stroke-width:10.42px;"/>
            </g>
            <g transform="matrix(0.831287,0,0,0.865622,8661.65,207.621)">
                <path d="M863.357,1383.41C863.357,1383.41 896.165,1652.7 978.072,1836.18" style="fill:none;stroke:rgb(0,201,97);stroke-width:10.42px;"/>
            </g>
        </g>
        <g id="Brille" transform="matrix(1.32502,0,0,1.39739,38212,-290.126)">
            <g transform="matrix(0.831287,0,0,0.865622,-27227.5,0)">
                <path d="M44716.2,1003C44461.6,1116.96 44450,1120.9 44437,1108.08C44295.9,969.402 44169.2,1142.47 44297.4,1245.42C44367,1301.25 44488.6,1277.48 44454.5,1138.77" style="fill:none;stroke:rgb(0,201,97);stroke-width:20.83px;"/>
            </g>
            <g transform="matrix(1.28175,0,0,1.33469,-47132,-519.727)">
                <path d="M44149.2,1113.73C44173,1098.07 44201.1,1100.26 44224,1109.41" style="fill:none;stroke:rgb(0,201,97);stroke-width:13.51px;"/>
            </g>
            <g transform="matrix(0.831287,0,0,0.865622,-27227.5,0)">
                <path d="M43986.4,1030.92C43919.1,1086.09 43887.2,1093.29 43921.9,1116.05C44080.6,983.828 44208.7,1155.75 44104.8,1250.44C44048.8,1301.45 43934,1253.8 43925,1138.21" style="fill:none;stroke:rgb(0,201,97);stroke-width:20.83px;"/>
            </g>
        </g>
        <g id="Haare">
            <g transform="matrix(1.10148,0,0,1.20961,2135.02,-290.126)">
                <path d="M44694.8,492.321C44848.7,410.246 44925.6,648.641 44929.1,766.76" style="fill:none;stroke:rgb(0,201,97);stroke-width:10.42px;"/>
            </g>
            <g transform="matrix(1.10148,0,0,1.20961,2135.02,-290.126)">
                <path d="M44573.5,648.839C44590.8,785.289 44713.7,780.75 44684.1,902.263C44666.7,973.57 44690.9,1050.49 44728.6,1121.78" style="fill:none;stroke:rgb(0,201,97);stroke-width:10.42px;"/>
            </g>
            <g transform="matrix(1.10148,0,0,1.20961,2135.02,-290.126)">
                <path d="M44754.9,570.583C44910.6,635.083 44819.9,781.133 44880.1,894.503" style="fill:none;stroke:rgb(0,201,97);stroke-width:10.42px;"/>
            </g>
            <g transform="matrix(1.10148,0,0,1.20961,2135.02,-290.126)">
                <path d="M44725.1,665.889C44790,714.344 44790.4,824.781 44812,948.574" style="fill:none;stroke:rgb(0,201,97);stroke-width:10.42px;"/>
            </g>
            <g transform="matrix(1.10148,0,0,1.20961,2135.02,-290.126)">
                <path d="M44006.4,665.924C43882.5,755.24 43901.7,853.481 43975.9,1006.82" style="fill:none;stroke:rgb(0,201,97);stroke-width:10.42px;"/>
            </g>
            <g transform="matrix(1.10148,0,0,1.20961,2135.02,-290.126)">
                <path d="M44207.5,657.538C44279,627.08 44278.8,629.074 44337.2,576.809C44378.4,539.892 44425.1,561.114 44475.4,543.057" style="fill:none;stroke:rgb(0,201,97);stroke-width:10.42px;"/>
            </g>
            <g transform="matrix(1.10148,0,0,1.20961,2135.02,-290.126)">
                <path d="M44540.5,468.268C44416.2,493.001 44406,521.337 44303.5,446.88" style="fill:none;stroke:rgb(0,201,97);stroke-width:10.42px;"/>
            </g>
            <g transform="matrix(1.10148,0,0,1.20961,2135.02,-290.126)">
                <path d="M44290.9,540.493C44249.5,530.031 44250.9,522.994 44213.1,528.678C44147.8,538.483 44147.9,544.596 44120.2,535.738" style="fill:none;stroke:rgb(0,201,97);stroke-width:10.42px;"/>
            </g>
            <g transform="matrix(1.10148,0,0,1.20961,2135.02,-290.126)">
                <path d="M44018.7,627.107C44079.6,629.704 44151.3,582.382 44214.7,624.754" style="fill:none;stroke:rgb(0,201,97);stroke-width:10.42px;"/>
            </g>
            <g transform="matrix(1.10148,0,0,1.20961,2135.02,-290.126)">
                <path d="M44615.8,429.684C44545.5,331.025 44397.3,456.912 44300.9,396.406" style="fill:none;stroke:rgb(0,201,97);stroke-width:10.42px;"/>
            </g>
            <g transform="matrix(1.10148,0,0,1.20961,2135.02,-290.126)">
                <path d="M44700.5,423.769C44696.8,405.86 44680.5,326.517 44503.8,307.331C44395.9,295.614 44329.6,350.73 44217.2,363.114" style="fill:none;stroke:rgb(0,201,97);stroke-width:10.42px;"/>
            </g>
            <g transform="matrix(1.10148,0,0,1.20961,2135.02,-290.126)">
                <path d="M44194.9,429.684C44028,445.291 44044.4,520.999 43975.8,565.192" style="fill:none;stroke:rgb(0,201,97);stroke-width:10.42px;"/>
            </g>
        </g>
        <g id="Hand" transform="matrix(1.59306,0,0,1.58639,35308.6,-245.112)">
            <g transform="matrix(0.5154,0,-1.11022e-16,0.568377,-13475.9,503.655)">
                <path d="M44171.5,1814.19C44114.7,1763.01 44106,1706.06 44142.8,1625.42C44169.4,1567.23 44202.1,1529.02 44260.8,1536.93C44333.9,1546.79 44400,1551.56 44400,1551.56C44400,1551.56 44362.2,1537.91 44328.6,1515.27C44286.5,1486.94 44271.4,1483.63 44226.9,1508.38C44218.4,1513.14 44158.3,1585.01 44105.6,1545.69C44069,1518.33 44095.9,1416.08 44198.3,1373.69C44337.1,1316.19 44353.1,1332.17 44531.6,1427.98C44643.6,1488.07 44693.1,1507.7 44742.6,1608.11C44874,1875.14 44811.5,1875.14 45072,2029.01" style="fill:none;stroke:rgb(0,201,97);stroke-width:13.97px;"/>
            </g>
            <g transform="matrix(0.5154,0,-1.11022e-16,0.568377,-13475.9,503.655)">
                <path d="M44255.3,1719.01C44308.9,1696.66 44356.7,1733.22 44348.1,1732.94C44267.8,1730.34 44181.3,1769.16 44173.8,1802.19C44156.6,1877.7 44132.4,1943.04 44204.4,1990.88" style="fill:none;stroke:rgb(0,201,97);stroke-width:13.97px;"/>
            </g>
            <g transform="matrix(0.5154,0,-1.11022e-16,0.568377,-13475.9,503.655)">
                <path d="M44274.7,1907.73C44336.6,1873.29 44372,1891.23 44358.8,1897.44C44271.8,1938.57 44183.4,1991.12 44222.9,2039.2C44316.3,2152.66 44380.6,2135.61 44395.7,2133.01" style="fill:none;stroke:rgb(0,201,97);stroke-width:13.97px;"/>
            </g>
            <g transform="matrix(0.5154,0,-1.11022e-16,0.568377,-13475.9,503.655)">
                <path d="M44349.1,2074.62C44417.2,2129.14 44632.2,2251.49 44738.7,2256.32" style="fill:none;stroke:rgb(0,201,97);stroke-width:13.97px;"/>
            </g>
            <g transform="matrix(0.691421,0,0,0.762492,-21235.8,-1.73371e-13)">
                <path d="M44315.9,1603.98C44321.5,1594.38 44331.1,1587.18 44347.6,1586.12C44349.6,1585.99 44362.1,1585.18 44371.4,1594.7C44372.6,1595.98 44432.6,1715.32 44458.1,1735.75" style="fill:none;stroke:rgb(0,201,97);stroke-width:10.42px;"/>
            </g>
            <g transform="matrix(0.685502,-0.0995571,0.0902775,0.755965,-21140.1,4438.39)">
                <path d="M44431.6,1836.6C44455.9,1828 44490.1,1846.63 44487.7,1875.55" style="fill:none;stroke:rgb(0,201,97);stroke-width:10.42px;"/>
            </g>
            <g transform="matrix(0.649511,-0.26143,0.237062,0.716274,-19844,11791.4)">
                <path d="M44431.6,1836.6C44455.9,1828 44490.1,1846.63 44487.7,1875.55" style="fill:none;stroke:rgb(0,201,97);stroke-width:10.42px;"/>
            </g>
            <g transform="matrix(0.691421,0,0,0.762492,-21246.5,-1.95595)">
                <path d="M44297.2,1684.51C44286.5,1686.57 44279.3,1701.54 44281.8,1707.28" style="fill:none;stroke:rgb(0,201,97);stroke-width:10.42px;"/>
            </g>
            <g transform="matrix(0.691421,0,0,0.762492,-21235.8,-1.73371e-13)">
                <path d="M44281.8,2207.01C44279,2201.26 44277.9,2194.87 44278,2188.03" style="fill:none;stroke:rgb(0,201,97);stroke-width:10.42px;"/>
            </g>
            <g transform="matrix(0.691421,0,0,0.762492,-21235.8,-1.73371e-13)">
                <path d="M44226.4,2082.6C44216.4,2089.43 44200.6,2088.43 44194,2084.02" style="fill:none;stroke:rgb(0,201,97);stroke-width:10.42px;"/>
            </g>
            <g transform="matrix(0.691421,0,0,0.762492,-21235.8,-1.73371e-13)">
                <path d="M44212,1941.92C44189.2,1939.15 44179,1935.52 44161,1918.2" style="fill:none;stroke:rgb(0,201,97);stroke-width:10.42px;"/>
            </g>
            <g transform="matrix(0.691421,0,0,0.762492,-21235.8,-1.73371e-13)">
                <path d="M44180.8,1793.73C44164.2,1794.72 44155.4,1788.78 44150,1781.72" style="fill:none;stroke:rgb(0,201,97);stroke-width:10.42px;"/>
            </g>
        </g>
        <g id="Lupe" transform="matrix(1.59306,0,0,1.58639,35308.6,-245.112)">
            <g transform="matrix(0.691421,0,0,0.762492,-21263.2,-66.0503)">
                <path d="M44191.2,1665.04C43928.8,1625.99 43831.3,1217.4 43882.1,1044.85C43901.9,977.712 43927.3,977.561 43969.3,962.234C44014.2,945.892 44051.8,926.071 44096.4,936.946C44336.3,995.528 44441,1491.53 44304.3,1626.95" style="fill:none;stroke:rgb(0,201,97);stroke-width:10.42px;"/>
            </g>
            <g transform="matrix(0.652373,-0.252616,0.22907,0.71943,-19808.5,11068.1)">
                <path d="M44063.8,1681.42C43999.1,1645.72 43951.1,1516.11 43951.1,1361.88C43951.1,1207.66 43999.1,1078.05 44063.8,1042.34" style="fill:none;stroke:rgb(205,243,223);stroke-width:10.42px;"/>
            </g>
            <g transform="matrix(0.652373,-0.252616,0.22907,0.71943,-19855.5,11086.3)">
                <ellipse cx="44099.8" cy="1361.88" rx="148.77" ry="329.294" style="fill:none;stroke:rgb(0,201,97);stroke-width:10.42px;"/>
            </g>
            <g transform="matrix(0.691421,0,0,0.762492,-21235.8,-1.73371e-13)">
                <path d="M44324,1667.17C44285.3,1599.95 44280,1518.02 44221.8,1526.58C44095.5,1545.17 44176.8,1650.8 44183.6,1659.64" style="fill:none;stroke:rgb(0,201,97);stroke-width:10.42px;"/>
            </g>
            <g transform="matrix(0.691421,0,0,0.762492,-21235.8,-1.73371e-13)">
                <path d="M44224,1774.3C44229.3,1789.44 44228.3,1789.34 44237.9,1801.65" style="fill:none;stroke:rgb(0,201,97);stroke-width:10.42px;"/>
            </g>
        </g>
    </g>
</svg>
